<svg xmlns="http://www.w3.org/2000/svg" viewBox="0 0 64 64" width="64" height="64">
  <!-- D-CIP favicon: dark badge + shield/circuit + fingerprint arcs + magnifying glass. -->
  <!-- Placeholder redrawn from the approved brand sheet; swap for the exported favicon set when available. -->
  <rect width="64" height="64" rx="14" fill="#0B1320" />

  <path
    d="M32 8 L50 15 V28.5 C50 41.5 42.5 49.5 32 53 C21.5 49.5 14 41.5 14 28.5 V15 Z"
    fill="#0D1B2A"
    stroke="#2563EB"
    stroke-width="2"
  />

  <clipPath id="dcipFaviconLeftHalf">
    <rect x="12" y="6" width="20" height="50" />
  </clipPath>
  <g clip-path="url(#dcipFaviconLeftHalf)" stroke="#38BDF8" stroke-width="1.3" stroke-linecap="round" stroke-linejoin="round">
    <path d="M20 18 L25.5 23 L19 29.5 L24.5 36 L20 42.5" />
    <circle cx="20" cy="18" r="1.5" fill="#38BDF8" />
    <circle cx="25.5" cy="23" r="1.5" fill="#38BDF8" />
    <circle cx="19" cy="29.5" r="1.5" fill="#38BDF8" />
    <circle cx="24.5" cy="36" r="1.5" fill="#38BDF8" />
    <circle cx="20" cy="42.5" r="1.5" fill="#38BDF8" />
  </g>

  <clipPath id="dcipFaviconRightHalf">
    <rect x="32" y="6" width="20" height="50" />
  </clipPath>
  <g clip-path="url(#dcipFaviconRightHalf)" stroke="#2563EB" stroke-width="1.3" fill="none" stroke-linecap="round">
    <path d="M32 16 a14.5 14.5 0 0 1 14.5 14.5" />
    <path d="M32 21.5 a9.5 9.5 0 0 1 9.5 9.5" />
    <path d="M32 27 a5 5 0 0 1 5 5" />
  </g>

  <circle cx="33.5" cy="33.5" r="8" fill="#F3F6FA" stroke="#0D1B2A" stroke-width="2.2" />
  <circle cx="33.5" cy="33.5" r="8" fill="none" stroke="#2563EB" stroke-width="1.2" />
  <line x1="39.2" y1="39.2" x2="45.5" y2="45.5" stroke="#0D1B2A" stroke-width="3.2" stroke-linecap="round" />
  <line x1="39.2" y1="39.2" x2="45.5" y2="45.5" stroke="#2563EB" stroke-width="1.2" stroke-linecap="round" />
</svg>
