<svg xmlns="http://www.w3.org/2000/svg" viewBox="0 0 64 64" fill="none">
  <!-- D-CIP mark: shield / circuit (investigation) + fingerprint arcs (identity) + magnifying glass (intelligence). -->
  <!-- Placeholder redrawn from the approved brand sheet; swap for the exported vector when available. -->
  <path
    d="M32 4 L54 12.5 V29 C54 45.5 44.5 55.5 32 60 C19.5 55.5 10 45.5 10 29 V12.5 Z"
    fill="#0D1B2A"
    stroke="#2563EB"
    stroke-width="2"
  />

  <clipPath id="dcipMarkLeftHalf">
    <rect x="8" y="2" width="24" height="60" />
  </clipPath>
  <g clip-path="url(#dcipMarkLeftHalf)" stroke="#38BDF8" stroke-width="1.4" stroke-linecap="round" stroke-linejoin="round">
    <path d="M18 15 L24.5 21 L16.5 29 L23 37 L17.5 45" />
    <circle cx="18" cy="15" r="1.7" fill="#38BDF8" />
    <circle cx="24.5" cy="21" r="1.7" fill="#38BDF8" />
    <circle cx="16.5" cy="29" r="1.7" fill="#38BDF8" />
    <circle cx="23" cy="37" r="1.7" fill="#38BDF8" />
    <circle cx="17.5" cy="45" r="1.7" fill="#38BDF8" />
  </g>

  <clipPath id="dcipMarkRightHalf">
    <rect x="32" y="2" width="24" height="60" />
  </clipPath>
  <g clip-path="url(#dcipMarkRightHalf)" stroke="#2563EB" stroke-width="1.4" fill="none" stroke-linecap="round">
    <path d="M32 12 a18 18 0 0 1 18 18" />
    <path d="M32 18 a12 12 0 0 1 12 12" />
    <path d="M32 24 a6 6 0 0 1 6 6" />
  </g>

  <circle cx="34" cy="34" r="9.5" fill="#F3F6FA" stroke="#0D1B2A" stroke-width="2.5" />
  <circle cx="34" cy="34" r="9.5" fill="none" stroke="#2563EB" stroke-width="1.4" />
  <line x1="40.7" y1="40.7" x2="48.5" y2="48.5" stroke="#0D1B2A" stroke-width="3.6" stroke-linecap="round" />
  <line x1="40.7" y1="40.7" x2="48.5" y2="48.5" stroke="#2563EB" stroke-width="1.4" stroke-linecap="round" />
</svg>
